# xmcd CD database file
#
# Track frame offsets:
#	150
#	21759
#	41897
#
# Disc length: 833 seconds
#
# Revision: 0
# Processed by: cddbd v1.5.1PL0 Copyright (c) Steve Scherf et al.
# Submitted via: CDex 1.51
#
DISCID=1f033f03
DTITLE=FREENOTE - Re:チャンネル
DYEAR=2004
DGENRE=JPop
TTITLE0=Re:チャンネル
TTITLE1=遙かへのスピードランナー
TTITLE2=エアロプレイン
EXTD=YEAR: 2004
EXTT0=
EXTT1=
EXTT2=
PLAYORDER=
